<svg width="70" height="70" viewBox="0 0 70 70" fill="none" xmlns="http://www.w3.org/2000/svg">
<path d="M69.6323 0.248554C69.5124 0.146428 69.3708 0.0728362 69.2183 0.0333152C69.0658 -0.00620574 68.9063 -0.010627 68.7518 0.0203842L62.3059 1.31672C62.0775 1.36302 61.8712 1.48455 61.72 1.66188C61.5688 1.83921 61.4814 2.0621 61.4718 2.29493C61.4408 2.98354 61.3924 3.67125 61.3265 4.3574H54.454C54.5022 3.28506 54.5356 2.18889 54.5356 1.04268C54.5356 0.766179 54.4258 0.501002 54.2302 0.305485C54.0347 0.109969 53.7695 0.000129008 53.493 0.000129008H16.5069C16.2304 0.000129008 15.9652 0.109969 15.7697 0.305485C15.5742 0.501002 15.4643 0.766179 15.4643 1.04268C15.4643 2.18889 15.4977 3.28446 15.546 4.3574H8.67525C8.60936 3.67125 8.56089 2.98354 8.52989 2.29493C8.52028 2.0621 8.4329 1.83921 8.2817 1.66188C8.13051 1.48455 7.92424 1.36302 7.69585 1.31672L1.24812 0.0203842C1.09371 -0.0104479 0.934321 -0.00594421 0.781897 0.0335578C0.629474 0.0730599 0.487963 0.146536 0.367963 0.248485C0.247963 0.350433 0.152585 0.478211 0.0889709 0.622248C0.025357 0.766285 -0.00484358 0.922848 0.000631137 1.08021C0.882927 25.4914 22.5227 30.9234 25.6426 31.5781C26.6197 32.532 27.7022 33.3714 28.8692 34.0802V37.0971C28.8713 37.7447 29.0747 38.3756 29.4513 38.9024C29.8279 39.4293 30.3589 39.826 30.971 40.0377L31.1437 48.6819C31.1583 49.5296 30.9545 50.3668 30.5518 51.1129C30.1492 51.859 29.5613 52.4889 28.8447 52.9421L25.0618 55.3185C23.5397 56.2718 22.4441 57.7757 22.0032 59.5167L21.8745 60.0207H20.0689C19.7924 60.0209 19.5273 60.1307 19.3318 60.3262C19.1363 60.5217 19.0265 60.7868 19.0263 61.0633V68.9575C19.0265 69.2339 19.1363 69.499 19.3318 69.6945C19.5273 69.89 19.7924 69.9998 20.0689 70H49.9305C50.207 70 50.4722 69.8902 50.6677 69.6946C50.8632 69.4991 50.973 69.2339 50.973 68.9575V61.0633C50.973 60.7867 50.8632 60.5216 50.6677 60.3261C50.4722 60.1305 50.207 60.0207 49.9305 60.0207H48.1254L47.9967 59.5167C47.5558 57.7757 46.4602 56.2718 44.9382 55.3185L41.1552 52.9421C40.4386 52.4889 39.8507 51.859 39.4481 51.1129C39.0455 50.3668 38.8416 49.5296 38.8562 48.6819L39.029 40.0377C39.641 39.826 40.1721 39.4293 40.5487 38.9024C40.9252 38.3756 41.1287 37.7447 41.1308 37.0971V34.079C42.2978 33.3702 43.3803 32.5308 44.3573 31.5769C47.4766 30.9216 69.117 25.4902 69.9993 1.07902C70.0049 0.921859 69.9748 0.765476 69.9112 0.621633C69.8477 0.477791 69.7523 0.350233 69.6323 0.248554ZM61.0655 6.44429C59.3975 17.3923 53.3548 22.2744 49.7202 24.257C51.8875 20.0666 53.7367 14.289 54.3301 6.44429H61.0655ZM52.4427 2.08523C52.1216 24.6937 41.3572 31.5573 39.8285 32.4175H30.1697C29.447 32.0154 26.6977 30.3122 23.974 26.3302C21.1215 22.16 17.7359 14.6006 17.5578 2.08344L52.4427 2.08523ZM15.6699 6.4425C16.2656 14.2849 18.1124 20.0624 20.2797 24.2552C16.6457 22.2738 10.6007 17.3917 8.9344 6.4425H15.6699ZM2.15424 2.32949L6.49007 3.20106C7.60649 21.2789 19.6298 26.4523 22.095 27.3251C22.4286 27.8216 22.778 28.3071 23.1429 28.7811C16.8375 26.7931 3.42556 20.4574 2.15424 2.32949ZM48.8879 67.9149H21.1114V62.1064H48.8879V67.9149ZM40.0465 54.7079L43.8289 57.0843C44.8942 57.7517 45.6621 58.8033 45.9736 60.0213H24.0264C24.338 58.8035 25.1058 57.7522 26.1711 57.0849L29.9534 54.7085C30.9745 54.0634 31.8123 53.1663 32.3861 52.1036C32.96 51.0409 33.2506 49.8484 33.23 48.6408L33.0608 40.2247H36.9391L36.7711 48.6426C36.7508 49.8497 37.0414 51.0416 37.6151 52.1039C38.1887 53.1661 39.026 54.0629 40.0465 54.7079ZM39.0457 37.0971C39.0452 37.3734 38.9352 37.6383 38.7398 37.8338C38.5444 38.0292 38.2795 38.1392 38.0031 38.1396H31.9968C31.7205 38.1392 31.4556 38.0292 31.2602 37.8338C31.0647 37.6383 30.9548 37.3734 30.9543 37.0971V34.5026H39.0457V37.0971ZM46.8553 28.7811C47.2182 28.3098 47.5659 27.827 47.8978 27.3334C50.6367 26.3297 53.1371 24.7675 55.2404 22.7462C58.6879 19.5036 62.8718 13.5003 63.5081 3.19927L67.8439 2.3277C66.5744 20.4574 53.1624 26.7931 46.8553 28.7811Z" fill="white"/>
<path d="M30.3032 18.3023L29.5519 22.6816C29.5188 22.8735 29.5401 23.0709 29.6134 23.2514C29.6868 23.4319 29.8092 23.5882 29.9669 23.7026C30.1245 23.8171 30.3111 23.885 30.5054 23.8988C30.6998 23.9126 30.8941 23.8717 31.0663 23.7807L34.9982 21.7141L38.9301 23.7819C39.1023 23.8724 39.2964 23.9129 39.4904 23.8989C39.6844 23.8849 39.8707 23.8168 40.028 23.7025C40.1854 23.5881 40.3076 23.432 40.3809 23.2518C40.4542 23.0716 40.4756 22.8745 40.4427 22.6828L39.6927 18.3023L42.8751 15.2002C43.0142 15.0643 43.1126 14.8923 43.159 14.7035C43.2055 14.5147 43.1983 14.3166 43.1382 14.1317C43.0781 13.9467 42.9675 13.7823 42.819 13.6569C42.6704 13.5315 42.4897 13.4501 42.2973 13.4219L37.8995 12.7827L35.9335 8.79835C35.8476 8.62382 35.7144 8.47683 35.5492 8.37405C35.384 8.27127 35.1934 8.2168 34.9988 8.2168C34.8042 8.2168 34.6136 8.27127 34.4484 8.37405C34.2832 8.47683 34.1501 8.62382 34.0641 8.79835L32.0981 12.7827L27.7004 13.4219C27.508 13.4501 27.3273 13.5315 27.1787 13.6569C27.0301 13.7823 26.9195 13.9467 26.8594 14.1317C26.7993 14.3166 26.7921 14.5147 26.8386 14.7035C26.8851 14.8923 26.9834 15.0643 27.1225 15.2002L30.3032 18.3023ZM32.9393 14.7677C33.1065 14.7433 33.2652 14.6786 33.4019 14.5793C33.5385 14.48 33.649 14.349 33.7239 14.1976L34.9982 11.6156L36.2725 14.1976C36.3474 14.349 36.4579 14.48 36.5946 14.5793C36.7312 14.6786 36.8899 14.7433 37.0571 14.7677L39.9065 15.1847L37.8447 17.1948C37.7241 17.313 37.634 17.4587 37.5821 17.6195C37.5302 17.7802 37.5181 17.9511 37.5468 18.1176L38.0335 20.9551L35.4849 19.6153C35.3353 19.5366 35.1688 19.4955 34.9997 19.4955C34.8306 19.4955 34.6641 19.5366 34.5145 19.6153L31.9659 20.9551L32.4532 18.1176C32.4819 17.9511 32.4698 17.7802 32.4179 17.6195C32.366 17.4587 32.2759 17.313 32.1553 17.1948L30.0935 15.1847L32.9393 14.7677ZM19.9593 42.7897C19.9593 42.6528 19.9324 42.5172 19.8801 42.3906C19.8277 42.2641 19.7509 42.1492 19.6541 42.0523C19.5573 41.9555 19.4423 41.8787 19.3158 41.8263C19.1892 41.774 19.0536 41.7471 18.9167 41.7471H17.6025C17.326 41.7471 17.0608 41.857 16.8653 42.0525C16.6698 42.248 16.5599 42.5132 16.5599 42.7897C16.5599 43.0662 16.6698 43.3314 16.8653 43.5269C17.0608 43.7224 17.326 43.8322 17.6025 43.8322H18.9185C19.1947 43.8318 19.4594 43.7217 19.6545 43.5263C19.8497 43.3308 19.9593 43.0659 19.9593 42.7897ZM13.3781 41.7471H12.0621C11.7856 41.7471 11.5204 41.857 11.3249 42.0525C11.1294 42.248 11.0195 42.5132 11.0195 42.7897C11.0195 43.0662 11.1294 43.3314 11.3249 43.5269C11.5204 43.7224 11.7856 43.8322 12.0621 43.8322H13.3781C13.6546 43.8322 13.9198 43.7224 14.1153 43.5269C14.3108 43.3314 14.4206 43.0662 14.4206 42.7897C14.4206 42.5132 14.3108 42.248 14.1153 42.0525C13.9198 41.857 13.6546 41.7471 13.3781 41.7471ZM15.4894 43.8585C15.3525 43.8584 15.2169 43.8853 15.0903 43.9377C14.9638 43.99 14.8489 44.0668 14.752 44.1636C14.6552 44.2605 14.5784 44.3754 14.526 44.5019C14.4737 44.6285 14.4468 44.7641 14.4468 44.901V46.217C14.4468 46.4935 14.5567 46.7587 14.7522 46.9542C14.9477 47.1497 15.2129 47.2596 15.4894 47.2596C15.7659 47.2596 16.0311 47.1497 16.2266 46.9542C16.4221 46.7587 16.5319 46.4935 16.5319 46.217V44.901C16.532 44.7641 16.5051 44.6285 16.4527 44.5019C16.4004 44.3754 16.3236 44.2605 16.2268 44.1636C16.1299 44.0668 16.015 43.99 15.8885 43.9377C15.7619 43.8853 15.6263 43.8584 15.4894 43.8585ZM15.4894 38.3198C15.2129 38.3198 14.9477 38.4297 14.7522 38.6252C14.5567 38.8207 14.4468 39.0859 14.4468 39.3624V40.6784C14.4468 40.9549 14.5567 41.2201 14.7522 41.4156C14.9477 41.6111 15.2129 41.7209 15.4894 41.7209C15.7659 41.7209 16.0311 41.6111 16.2266 41.4156C16.4221 41.2201 16.5319 40.9549 16.5319 40.6784V39.3624C16.5319 39.0859 16.4221 38.8207 16.2266 38.6252C16.0311 38.4297 15.7659 38.3198 15.4894 38.3198ZM57.9343 41.7471H56.6183C56.3418 41.7471 56.0767 41.857 55.8811 42.0525C55.6856 42.248 55.5758 42.5132 55.5758 42.7897C55.5758 43.0662 55.6856 43.3314 55.8811 43.5269C56.0767 43.7224 56.3418 43.8322 56.6183 43.8322H57.9343C58.2108 43.8322 58.476 43.7224 58.6715 43.5269C58.8671 43.3314 58.9769 43.0662 58.9769 42.7897C58.9769 42.5132 58.8671 42.248 58.6715 42.0525C58.476 41.857 58.2108 41.7471 57.9343 41.7471ZM52.3939 41.7471H51.0797C50.8032 41.7471 50.538 41.857 50.3425 42.0525C50.147 42.248 50.0372 42.5132 50.0372 42.7897C50.0372 43.0662 50.147 43.3314 50.3425 43.5269C50.538 43.7224 50.8032 43.8322 51.0797 43.8322H52.3939C52.6704 43.8322 52.9356 43.7224 53.1311 43.5269C53.3266 43.3314 53.4365 43.0662 53.4365 42.7897C53.4365 42.5132 53.3266 42.248 53.1311 42.0525C52.9356 41.857 52.6704 41.7471 52.3939 41.7471ZM54.507 43.8585C54.2308 43.8588 53.966 43.9688 53.7708 44.1643C53.5756 44.3598 53.4661 44.6248 53.4663 44.901V46.217C53.4663 46.4935 53.5761 46.7587 53.7716 46.9542C53.9671 47.1497 54.2323 47.2596 54.5088 47.2596C54.7853 47.2596 55.0505 47.1497 55.246 46.9542C55.4415 46.7587 55.5514 46.4935 55.5514 46.217V44.901C55.5514 44.7639 55.5245 44.6282 55.472 44.5015C55.4195 44.3749 55.3426 44.2599 55.2456 44.163C55.1485 44.0662 55.0334 43.9894 54.9066 43.9371C54.7799 43.8849 54.6441 43.8581 54.507 43.8585ZM54.507 38.3198C54.2308 38.3203 53.9661 38.4304 53.771 38.6258C53.5759 38.8213 53.4663 39.0862 53.4663 39.3624V40.6784C53.4663 40.9549 53.5761 41.2201 53.7716 41.4156C53.9671 41.6111 54.2323 41.7209 54.5088 41.7209C54.7853 41.7209 55.0505 41.6111 55.246 41.4156C55.4415 41.2201 55.5514 40.9549 55.5514 40.6784V39.3624C55.5514 39.2253 55.5243 39.0896 55.4718 38.963C55.4193 38.8364 55.3424 38.7214 55.2454 38.6246C55.1484 38.5277 55.0332 38.451 54.9065 38.3987C54.7799 38.3464 54.6441 38.3196 54.507 38.3198Z" fill="white"/>
</svg>
