<svg width="70" height="70" viewBox="0 0 70 70" fill="none" xmlns="http://www.w3.org/2000/svg">
<path d="M68.2334 32.5631C68.0784 32.3773 67.9851 32.1478 67.9666 31.9065C67.948 31.6653 68.0051 31.4242 68.1298 31.2169C68.6366 30.4055 68.973 29.4996 69.1186 28.5541C69.2643 27.6087 69.216 26.6435 68.9769 25.7173C68.7424 24.7899 68.3156 23.9221 67.7241 23.1703C67.1327 22.4184 66.3899 21.7992 65.5438 21.3529C65.3336 21.2355 65.1665 21.0541 65.0668 20.835C64.9671 20.6159 64.94 20.3706 64.9896 20.1351C65.0458 19.8686 65.0882 19.6001 65.1168 19.3299C65.142 19.0908 65.0926 18.8497 64.9753 18.6398C64.8581 18.4299 64.6786 18.2615 64.4618 18.1577C64.245 18.0539 64.0015 18.0198 63.7646 18.0601C63.5277 18.1004 63.3091 18.2131 63.1388 18.3827L57.605 23.916L23.9213 57.5985L18.3831 63.1367C18.2134 63.3072 18.1007 63.5261 18.0606 63.7633C18.0204 64.0005 18.0548 64.2443 18.1589 64.4612C18.263 64.6781 18.4317 64.8573 18.6419 64.9744C18.8521 65.0914 19.0934 65.1404 19.3326 65.1146C19.6022 65.0859 19.8702 65.0437 20.1355 64.988C20.3712 64.938 20.6167 64.9648 20.836 65.0645C21.0554 65.1641 21.237 65.3313 21.3545 65.5417C21.8005 66.388 22.4195 67.131 23.1712 67.7227C23.9228 68.3145 24.7905 68.7416 25.7178 68.9764C26.6424 69.2144 27.6056 69.2624 28.5492 69.1176C29.4929 68.9727 30.3973 68.6381 31.208 68.1339C31.4183 68.0048 31.6642 67.9459 31.9102 67.9655C32.1562 67.9852 32.3896 68.0825 32.5768 68.2434C33.857 69.3748 35.5066 69.9995 37.2151 70C37.4303 70 37.646 69.9907 37.8622 69.9697C38.8183 69.8754 39.7454 69.5891 40.5881 69.1279C41.4308 68.6667 42.1717 68.0402 42.7665 67.2858C42.9207 67.0956 43.13 66.958 43.3657 66.8917C43.6013 66.8255 43.8517 66.834 44.0824 66.9159C44.9734 67.2672 45.9269 67.4326 46.8842 67.4019C47.8414 67.3712 48.7823 67.1451 49.6491 66.7376C50.5195 66.3258 51.2979 65.7427 51.9376 65.0231C52.5774 64.3035 53.0653 63.4621 53.3722 62.5495C53.4557 62.3146 53.6105 62.1116 53.8149 61.9689C54.0194 61.8262 54.2633 61.7509 54.5126 61.7536C55.4685 61.7667 56.4175 61.5898 57.3045 61.2333C58.1915 60.8768 58.9989 60.3476 59.6798 59.6766C60.3548 59.0009 60.8869 58.1962 61.2445 57.3106C61.6021 56.4249 61.7778 55.4764 61.7612 54.5214C61.7602 54.2708 61.8367 54.0259 61.9801 53.8203C62.1236 53.6148 62.327 53.4585 62.5626 53.3729C63.4737 53.0648 64.3134 52.5763 65.0316 51.9366C65.7498 51.297 66.3319 50.5192 66.7431 49.6498C67.1496 48.7852 67.3753 47.8468 67.4066 46.892C67.4378 45.9371 67.2738 44.986 66.9247 44.0967C66.8401 43.8634 66.8307 43.6095 66.8977 43.3706C66.9647 43.1317 67.1048 42.9197 67.2983 42.7643C68.0507 42.1684 68.6753 41.427 69.1351 40.5844C69.5948 39.7418 69.8801 38.8153 69.9741 37.8601C70.0614 36.9051 69.952 35.9423 69.6526 35.0312C69.3532 34.1201 68.8702 33.2801 68.2334 32.5631ZM52.2786 52.2771C45.6261 58.986 35.6851 61.2252 26.7986 58.0162L28.6682 56.1455C30.7461 56.7793 32.9057 57.1055 35.0781 57.1137C38.5165 57.1019 41.9046 56.2875 44.9727 54.7353C48.0408 53.183 50.704 50.9358 52.7503 48.1727C54.7968 45.4094 56.1698 42.2065 56.76 38.819C57.3502 35.4315 57.1413 31.953 56.15 28.6604L58.0111 26.7993C61.2192 35.6841 58.9829 45.6223 52.2786 52.2771ZM54.2567 30.5581C55.8037 37.1986 53.8125 44.1677 48.991 48.9883C44.1693 53.8092 37.2008 55.7993 30.5602 54.2512L54.2567 30.5581ZM65.868 40.925C65.2781 41.388 64.8521 42.0279 64.6526 42.7508C64.4531 43.4737 64.4905 44.2415 64.7595 44.9415C64.9974 45.5346 65.1099 46.1705 65.0898 46.8092C65.0697 47.4479 64.9175 48.0756 64.6428 48.6525C64.3674 49.2379 63.977 49.7619 63.4949 50.1933C63.0128 50.6247 62.4488 50.9547 61.8366 51.1638C61.1277 51.4032 60.5131 51.8616 60.0814 52.4727C59.6497 53.0839 59.4232 53.8163 59.4344 54.5644C59.4475 55.1991 59.3338 55.83 59.0999 56.4202C58.866 57.0103 58.5166 57.5479 58.0723 58.0013C57.6281 58.4549 57.0979 58.8152 56.5126 59.0611C55.9273 59.307 55.2987 59.4336 54.6639 59.4333H54.5082C53.7718 59.4342 53.0541 59.6654 52.4555 60.0943C51.8569 60.5232 51.4073 61.1286 51.1697 61.8256C50.9619 62.4388 50.6326 63.0037 50.2014 63.4867C49.7702 63.9696 49.246 64.3607 48.6602 64.6363C48.0815 64.9125 47.4517 65.0655 46.8108 65.0855C46.1699 65.1056 45.5319 64.9924 44.937 64.753C44.2395 64.4871 43.4752 64.4512 42.7558 64.6504C42.0364 64.8496 41.3995 65.2736 40.9381 65.8604C40.5388 66.3658 40.0416 66.7855 39.4763 67.0944C38.911 67.4033 38.2893 67.5951 37.6482 67.6583C37.0164 67.7182 36.3789 67.6478 35.7754 67.4515C35.1718 67.2551 34.6149 66.9371 34.1392 66.5169C33.5084 65.9473 32.6876 65.6337 31.8377 65.6374C31.1848 65.6373 30.5448 65.8185 29.9889 66.1608C29.4473 66.5033 28.8408 66.7305 28.2075 66.8281C27.5741 66.9258 26.9274 66.8918 26.3077 66.7283C25.6931 66.5727 25.1179 66.2897 24.6196 65.8977C24.1213 65.5056 23.7109 65.0133 23.415 64.4525C23.0671 63.8025 22.5182 63.2825 21.8504 62.9703L24.9951 59.8164C34.9461 63.8323 46.3328 61.5131 53.9197 53.9255C61.5075 46.3377 63.8261 34.9505 59.8103 25.0007L62.9676 21.8428C63.2793 22.5107 63.7994 23.0594 64.4498 23.4062C65.0103 23.7028 65.5024 24.1136 65.8944 24.612C66.2865 25.1105 66.5697 25.6855 66.7259 26.3001C66.8893 26.9213 66.9227 27.5694 66.8241 28.2041C66.7256 28.8388 66.4971 29.4463 66.153 29.9886C65.7588 30.6228 65.5798 31.3673 65.6428 32.1114C65.7057 32.8555 66.0072 33.5594 66.5024 34.1184C66.9242 34.5949 67.2441 35.1526 67.4424 35.7573C67.6406 36.362 67.7132 37.0008 67.6555 37.6345C67.5931 38.2753 67.4023 38.8969 67.0944 39.4622C66.7865 40.0275 66.3679 40.5251 65.8635 40.925H65.868ZM1.87226 38.7842C1.36591 39.5957 1.02994 40.5018 0.884785 41.4472C0.73963 42.3927 0.788324 43.3578 1.02791 44.2838C1.26214 45.211 1.68859 46.0787 2.27961 46.8305C2.87063 47.5824 3.61304 48.2016 4.45871 48.6482C4.6689 48.7655 4.83603 48.947 4.93566 49.1661C5.03529 49.3853 5.06218 49.6305 5.01241 49.866C4.95633 50.1323 4.91378 50.401 4.88589 50.6712C4.86062 50.9102 4.90994 51.1512 5.02709 51.3611C5.14423 51.571 5.32346 51.7395 5.54018 51.8434C5.75703 51.9472 6.00071 51.9813 6.23773 51.941C6.47475 51.9008 6.69347 51.788 6.86384 51.6184L12.397 46.0851L46.0846 12.3988L51.6155 6.86664C51.7854 6.69623 51.8982 6.47729 51.9384 6.24004C51.9787 6.00278 51.9443 5.75889 51.84 5.542C51.7361 5.32497 51.5673 5.14557 51.3571 5.02854C51.1468 4.91152 50.9054 4.86266 50.6661 4.88869C50.3965 4.91734 50.1286 4.95957 49.8632 5.01521C49.6275 5.06531 49.382 5.03858 49.1626 4.93893C48.9432 4.83928 48.7616 4.67197 48.6442 4.46151C48.1985 3.61568 47.58 2.8729 46.829 2.28127C46.0779 1.68963 45.211 1.26234 44.2843 1.02705C43.3598 0.788191 42.3964 0.739707 41.4527 0.884538C40.5089 1.02937 39.6044 1.3645 38.7941 1.86957C38.5839 1.99878 38.3381 2.05782 38.0921 2.03814C37.8462 2.01846 37.6129 1.92109 37.4259 1.7601C36.7102 1.12537 35.8717 0.64433 34.9626 0.346756C34.0534 0.0491813 33.0928 -0.0585908 32.1403 0.0301126C31.1842 0.124341 30.257 0.410661 29.4143 0.871906C28.5716 1.33315 27.8307 1.95982 27.2361 2.71434C27.0817 2.90422 26.8723 3.04169 26.6367 3.1079C26.4011 3.17411 26.1508 3.16583 25.9201 3.08418C25.0291 2.73241 24.0756 2.56672 23.1181 2.5973C22.1607 2.62788 21.2196 2.85408 20.3529 3.26198C19.4826 3.67397 18.7043 4.25726 18.0645 4.97696C17.4248 5.69666 16.9368 6.53799 16.6297 7.45063C16.5544 7.69071 16.4016 7.89905 16.1953 8.04306C15.989 8.18707 15.7407 8.25862 15.4894 8.24651C14.5333 8.23133 13.5838 8.40684 12.6963 8.76278C11.8088 9.11872 11.0012 9.64795 10.3206 10.3196C9.64531 10.996 9.11321 11.8015 8.75598 12.6881C8.39875 13.5746 8.22372 14.524 8.24131 15.4796C8.24207 15.7303 8.16547 15.9751 8.02198 16.1807C7.87849 16.3862 7.67509 16.5425 7.43951 16.6282C6.52847 16.9364 5.68881 17.4249 4.97059 18.0646C4.25236 18.7042 3.67028 19.4819 3.25903 20.3513C2.85274 21.2159 2.62713 22.1544 2.596 23.1092C2.56487 24.064 2.72888 25.0151 3.07799 25.9044C3.16238 26.1377 3.17172 26.3916 3.1047 26.6305C3.03768 26.8694 2.89765 27.0814 2.70421 27.2367C1.95184 27.8327 1.32718 28.5741 0.867466 29.4167C0.407755 30.2593 0.122407 31.1858 0.0284353 32.141C-0.0577905 33.0958 0.0525835 34.0581 0.352745 34.9686C0.652906 35.8791 1.13649 36.7184 1.77364 37.4348C1.92881 37.6213 2.02175 37.8517 2.03944 38.0937C2.05712 38.3356 1.99867 38.5771 1.87226 38.7842ZM17.7233 17.725C24.3766 11.0173 34.3169 8.77795 43.2034 11.986L41.3422 13.8534C33.5613 11.5028 25.1183 13.6227 19.371 19.3695C13.6232 25.1168 11.5028 33.5592 13.8527 41.3399L11.9853 43.2079C8.77627 34.3203 11.0152 24.3782 17.7233 17.7239V17.725ZM15.7459 39.444C14.1977 32.803 16.1889 25.8333 21.011 21.0122C25.8327 16.1907 32.8023 14.2011 39.4434 15.7499L15.7459 39.444ZM4.1341 29.077C4.72408 28.6143 5.15013 27.9745 5.3497 27.2517C5.54927 26.5289 5.51184 25.7612 5.2429 25.0613C5.00492 24.4681 4.89238 23.8321 4.91239 23.1933C4.93239 22.5545 5.08451 21.9268 5.35914 21.3497C5.63476 20.7644 6.02521 20.2405 6.50728 19.8091C6.98936 19.3777 7.55322 19.0476 8.16538 18.8385C8.87452 18.599 9.48932 18.1405 9.92116 17.5291C10.353 16.9178 10.5796 16.1851 10.5682 15.4367C10.555 14.802 10.6686 14.1711 10.9024 13.5809C11.1363 12.9907 11.4855 12.4531 11.9298 11.9997C12.3741 11.5461 12.9044 11.1857 13.4898 10.9398C14.0751 10.6939 14.7037 10.5674 15.3386 10.5677H15.4945C16.2308 10.5666 16.9483 10.3354 17.5468 9.90644C18.1452 9.47751 18.5947 8.87228 18.8323 8.17537C19.0411 7.56226 19.3715 6.99755 19.8035 6.515C20.2356 6.03245 20.7605 5.64196 21.3469 5.36687C21.9255 5.09072 22.5553 4.93776 23.1961 4.91768C23.837 4.8976 24.4751 5.01084 25.0699 5.25022C25.7671 5.51611 26.5311 5.5522 27.2503 5.35321C27.9695 5.15422 28.6062 4.73057 29.0676 4.14409C29.4671 3.63879 29.9643 3.21919 30.5296 2.91036C31.0949 2.60152 31.7166 2.40979 32.3577 2.34662C32.9896 2.28646 33.627 2.35672 34.2307 2.55305C34.8343 2.74938 35.3911 3.06759 35.8667 3.48797C36.4273 3.98745 37.1345 4.29202 37.8826 4.35612C38.6307 4.42022 39.3795 4.2404 40.0169 3.84357C40.5587 3.50139 41.1652 3.27443 41.7985 3.17682C42.4319 3.07921 43.0786 3.11304 43.6983 3.27621C44.3129 3.4319 44.8879 3.7149 45.3862 4.10691C45.8844 4.49892 46.2948 4.99119 46.5908 5.55186C46.9385 6.20197 47.4875 6.72196 48.1555 7.03402L45.0003 10.1918C35.0499 6.1722 23.6611 8.48955 16.0734 16.079C8.48618 23.6677 6.17094 35.0573 10.1924 45.0065L7.03502 48.1583C6.72319 47.4903 6.20285 46.9415 5.5523 46.5947C4.99193 46.298 4.49992 45.8873 4.10798 45.3889C3.71603 44.8905 3.43284 44.3155 3.27665 43.701C3.11304 43.0799 3.07942 42.4317 3.17789 41.797C3.27637 41.1623 3.50482 40.5548 3.84894 40.0125C4.24312 39.3782 4.42209 38.6336 4.35924 37.8895C4.29639 37.1453 3.99508 36.4413 3.5001 35.8822C3.07807 35.4059 2.75804 34.8483 2.55973 34.2437C2.36143 33.639 2.28905 33.0002 2.34706 32.3665C2.40944 31.7258 2.60028 31.1043 2.90818 30.5389C3.21609 29.9736 3.63475 29.4761 4.13917 29.0762L4.1341 29.077ZM17.2418 59.9177C17.4284 60.0078 17.6357 60.0464 17.8422 60.0296C18.0488 60.0127 18.247 59.941 18.4166 59.8218C18.5861 59.7026 18.7207 59.5402 18.8064 59.3516C18.8922 59.1629 18.9259 58.9548 18.9043 58.7487C18.8828 58.5426 18.8067 58.3461 18.6839 58.1793C18.561 58.0125 18.3959 57.8815 18.2055 57.7999L9.1571 53.6871C8.94157 53.5894 8.70137 53.5597 8.46852 53.6019C8.23568 53.6442 8.02126 53.7565 7.85387 53.9238C7.68661 54.0911 7.5743 54.3054 7.53192 54.5381C7.48953 54.7708 7.51907 55.0109 7.61661 55.2264L11.7317 64.2758C11.812 64.4679 11.9424 64.635 12.1093 64.7595C12.2762 64.884 12.4734 64.9614 12.6805 64.9836C12.8875 65.0058 13.0966 64.9721 13.2861 64.8859C13.4756 64.7998 13.6386 64.6644 13.758 64.4939C13.8773 64.3233 13.9488 64.1239 13.9648 63.9163C13.9809 63.7087 13.941 63.5007 13.8493 63.3138L13.1509 61.785L15.7106 59.2253L17.2418 59.9177ZM12.1224 59.5232L11.0161 57.0877L13.4499 58.1944L12.1224 59.5232ZM21.0149 56.7317C21.2452 56.7319 21.4703 56.6638 21.6618 56.5361C21.8533 56.4083 22.0026 56.2267 22.0909 56.014C22.179 55.8014 22.202 55.5675 22.1571 55.3418C22.1123 55.1161 22.0014 54.9087 21.8387 54.746L19.3699 52.2771L20.1938 51.4543C21.5565 50.0905 21.556 47.8803 20.1921 46.5176C18.829 45.1551 16.6188 45.1555 15.2561 46.5188L14.4333 47.3416C13.9968 47.778 13.7515 48.3699 13.7514 48.9872C13.7514 49.6047 13.9969 50.1968 14.4333 50.6332L16.8884 53.0866L16.9011 53.1004L16.9149 53.1148L20.1921 56.392C20.3003 56.4999 20.4286 56.5854 20.5697 56.6437C20.7109 56.7019 20.8622 56.7319 21.0149 56.7317ZM18.5473 49.8094L17.7233 50.6316L16.0783 48.9866L16.9011 48.1638C17.0455 48.0194 17.2254 47.9155 17.4227 47.8626C17.6199 47.8096 17.8277 47.8095 18.025 47.8623C18.2223 47.9151 18.4023 48.019 18.5467 48.1634C18.6912 48.3079 18.7951 48.4878 18.8481 48.6851C18.901 48.8824 18.9011 49.0902 18.8483 49.2875C18.7954 49.4849 18.6916 49.6649 18.5473 49.8094ZM27.5966 50.1501C27.8267 50.1501 28.0517 50.0818 28.243 49.954C28.4343 49.8261 28.5834 49.6444 28.6714 49.4318C28.7594 49.2192 28.7824 48.9853 28.7375 48.7596C28.6926 48.5339 28.5819 48.3266 28.4192 48.1638L25.9517 45.695L26.7745 44.8727C28.097 43.5029 28.0783 41.3263 26.7322 39.9797C25.3853 38.6335 23.2083 38.6142 21.839 39.9371L21.0151 40.7599C20.107 41.6686 20.107 43.1414 21.0151 44.05L26.7746 49.8094C26.9927 50.0274 27.2884 50.1499 27.5967 50.1501H27.5966ZM25.1288 43.2277L24.3065 44.05L22.6617 42.4049L23.4839 41.5821C23.7035 41.3706 23.9973 41.2537 24.3021 41.2566C24.607 41.2594 24.8986 41.3818 25.1141 41.5975C25.3297 41.8131 25.452 42.1047 25.4548 42.4096C25.4575 42.7144 25.3405 43.0082 25.1289 43.2277H25.1288ZM38.6322 39.1144C38.6322 38.8059 38.5096 38.5099 38.2914 38.2918C38.0732 38.0736 37.7773 37.951 37.4687 37.951H33.656C34.7797 36.4925 34.5773 34.4123 33.1937 33.1981C31.8102 31.9836 29.7209 32.0524 28.4204 33.3556L27.5983 34.1778C26.6895 35.0864 26.6895 36.5597 27.5983 37.4683L33.3571 43.2277C33.5777 43.4342 33.8699 43.5469 34.1721 43.542C34.4742 43.537 34.7626 43.4149 34.9763 43.2012C35.4198 42.7566 35.4313 42.04 35.001 41.5821L33.6967 40.2778H37.4687C37.6215 40.2778 37.7728 40.2478 37.914 40.1893C38.0552 40.1309 38.1835 40.0452 38.2915 39.9372C38.3996 39.8291 38.4853 39.7009 38.5437 39.5597C38.6022 39.4185 38.6322 39.2672 38.6322 39.1144ZM31.711 36.6455L30.8882 37.4694L29.2422 35.8233L30.0644 35.0005C30.2089 34.8561 30.3889 34.7522 30.5862 34.6993C30.7836 34.6463 30.9913 34.6462 31.1887 34.699C31.386 34.7518 31.566 34.8556 31.7104 35.0001C31.8549 35.1445 31.9587 35.3244 32.0115 35.5218C32.0645 35.719 32.0646 35.9266 32.0119 36.1239C31.9591 36.3212 31.8553 36.5011 31.711 36.6455ZM43.2282 35.0006C44.5876 33.6357 44.5876 31.4288 43.2282 30.0638L39.9377 26.7751C38.5568 25.4552 36.3823 25.4552 35.0009 26.7751C33.6384 28.1376 33.6384 30.3473 35.0009 31.71L38.2915 35.0005C38.6157 35.3247 39.0005 35.5819 39.424 35.7573C39.8475 35.9328 40.3015 36.0231 40.7599 36.0231C41.2184 36.0231 41.6723 35.9328 42.0958 35.7573C42.5194 35.5819 42.9042 35.3247 43.2283 35.0005L43.2282 35.0006ZM36.6465 30.0638C36.498 29.9204 36.3902 29.74 36.3344 29.5412C36.2786 29.3424 36.2767 29.1323 36.3289 28.9325C36.3813 28.7327 36.4859 28.5504 36.632 28.4044C36.778 28.2583 36.9603 28.1537 37.16 28.1012C37.3599 28.049 37.57 28.0509 37.7688 28.1068C37.9677 28.1626 38.1481 28.2704 38.2915 28.419L41.5816 31.7089C41.793 31.9284 41.9098 32.2222 41.907 32.5269C41.9041 32.8317 41.7819 33.1232 41.5665 33.3388C41.3511 33.5544 41.0597 33.677 40.7549 33.6801C40.4502 33.6833 40.1563 33.5667 39.9366 33.3556L36.6465 30.0638ZM48.9872 28.7596C49.1929 28.7594 49.395 28.7047 49.5727 28.6009C49.7504 28.4972 49.8974 28.3482 49.9987 28.1692C50.1001 27.9901 50.1522 27.7874 50.1497 27.5816C50.1471 27.3759 50.0901 27.1745 49.9844 26.9979L45.0487 18.7701C44.7179 18.2192 44.0031 18.0403 43.4522 18.3717C42.9013 18.7025 42.7224 19.4174 43.0537 19.9683L45.5886 24.2048L41.3538 21.6622C40.8029 21.3321 40.0879 21.5103 39.7576 22.0613C39.5988 22.3259 39.5517 22.6428 39.6265 22.9422C39.7013 23.2416 39.892 23.499 40.1566 23.6579L48.3822 28.5945C48.5651 28.7034 48.7742 28.7605 48.987 28.7596H48.9872ZM53.9237 23.824C54.2283 23.824 54.5207 23.7047 54.7383 23.4915L58.0623 20.2335C58.1715 20.1266 58.2585 19.9992 58.3184 19.8586C58.3783 19.718 58.41 19.567 58.4115 19.4142C58.4131 19.2613 58.3845 19.1097 58.3275 18.9679C58.2704 18.8261 58.186 18.697 58.0791 18.5878C57.9721 18.4787 57.8447 18.3916 57.7041 18.3317C57.5635 18.2718 57.4125 18.2401 57.2597 18.2386C57.1068 18.237 56.9552 18.2656 56.8134 18.3226C56.6716 18.3797 56.5425 18.4641 56.4333 18.571L53.932 21.0211L52.2776 19.3678L53.9237 17.7229C54.0723 17.5794 54.18 17.399 54.2358 17.2001C54.2916 17.0012 54.2935 16.7911 54.2412 16.5913C54.1888 16.3915 54.0842 16.2093 53.9382 16.0633C53.7922 15.9173 53.61 15.8127 53.4103 15.7603C53.2104 15.7081 53.0003 15.71 52.8015 15.7658C52.6026 15.8216 52.4222 15.9293 52.2788 16.0779L50.6326 17.7229L48.987 16.0767L51.4548 13.6089C51.6665 13.3894 51.7835 13.0956 51.7807 12.7908C51.7779 12.4859 51.6556 12.1943 51.4401 11.9787C51.2245 11.763 50.933 11.6406 50.6281 11.6377C50.3232 11.6349 50.0294 11.7518 49.8098 11.9633L46.5199 15.2551C46.4118 15.363 46.3261 15.4913 46.2676 15.6324C46.2091 15.7735 46.179 15.9248 46.179 16.0776C46.179 16.2304 46.2091 16.3816 46.2676 16.5228C46.3261 16.6639 46.4118 16.7921 46.5199 16.9001L49.8098 20.1906L53.1014 23.4822C53.2093 23.5904 53.3374 23.6763 53.4785 23.7349C53.6196 23.7936 53.7709 23.8238 53.9237 23.824ZM60.5049 17.2413C60.813 17.2413 61.109 17.1186 61.327 16.9001L62.1498 16.0779C63.9666 14.2605 63.9666 11.3145 62.1498 9.49733L60.5048 7.85174C58.687 6.03511 55.7416 6.03511 53.9238 7.85174L53.1014 8.67454C52.6475 9.12905 52.6475 9.86548 53.1014 10.3196L59.682 16.9001C59.7899 17.0083 59.9182 17.0941 60.0594 17.1527C60.2006 17.2112 60.3519 17.2414 60.5048 17.2413H60.5049ZM58.8593 9.49733L60.5049 11.1424C61.4129 12.051 61.4129 13.5237 60.5049 14.4328L55.5692 9.49733C56.49 8.61889 57.9384 8.61889 58.8593 9.49733Z" fill="white"/>
</svg>
