<?xml version="1.0" encoding="UTF-8"?>
<!DOCTYPE svg PUBLIC "-//W3C//DTD SVG 1.1//EN" "http://www.w3.org/Graphics/SVG/1.1/DTD/svg11.dtd">
<!-- Creator: CorelDRAW 2020 (64-Bit) -->
<svg xmlns="http://www.w3.org/2000/svg" xml:space="preserve" width="75.6008mm" height="19.9947mm" version="1.1" style="shape-rendering:geometricPrecision; text-rendering:geometricPrecision; image-rendering:optimizeQuality; fill-rule:evenodd; clip-rule:evenodd"
viewBox="0 0 795.01 210.26"
 xmlns:xlink="http://www.w3.org/1999/xlink"
 xmlns:xodm="http://www.corel.com/coreldraw/odm/2003">
 <defs>
  <style type="text/css">
   <![CDATA[
    .fil1 {fill:#FEFEFE}
    .fil3 {fill:#2B2A29;fill-rule:nonzero}
    .fil0 {fill:url(#id0)}
    .fil2 {fill:url(#id1);fill-rule:nonzero}
   ]]>
  </style>
  <linearGradient id="id0" gradientUnits="userSpaceOnUse" x1="4.53" y1="15.32" x2="216.85" y2="211.06">
   <stop offset="0" style="stop-opacity:1; stop-color:#00A0E3"/>
   <stop offset="1" style="stop-opacity:1; stop-color:#393185"/>
  </linearGradient>
  <linearGradient id="id1" gradientUnits="userSpaceOnUse" xlink:href="#id0" x1="514.08" y1="7.96" x2="515.29" y2="172.92">
  </linearGradient>
 </defs>
 <g id="Layer_x0020_1">
  <metadata id="CorelCorpID_0Corel-Layer"/>
  <g id="_3240583421600">
   <g>
    <path class="fil0" d="M11.79 76.56l64.78 -64.78c15.71,-15.71 41.42,-15.71 57.13,0l64.78 64.78c15.71,15.71 15.71,41.42 0,57.14l-64.78 64.78c-15.71,15.71 -41.42,15.71 -57.14,0l-64.78 -64.78c-15.71,-15.71 -15.71,-41.42 0,-57.14z"/>
    <path class="fil1" d="M8.31 105.13c0,30.2 43.35,54.68 96.82,54.68 53.47,0 96.82,-24.48 96.82,-54.68 0,-30.2 -43.35,-54.68 -96.82,-54.68 -53.47,0 -96.82,24.48 -96.82,54.68zm105.13 1.1c0,-7.22 1.53,-13.14 6.04,-18.87 4.43,-5.63 12.69,-10.33 20.01,-9.55 2.18,0.23 3.23,0.21 5.47,0.77 7.83,1.96 14.22,8.26 17.16,15.66 2.81,7.08 2.88,14.56 0.05,21.64 -0.88,2.21 -2.04,4.39 -3.47,6.29 -0.49,0.66 -0.99,1.33 -1.56,1.92 -1.06,1.1 -2.04,2.18 -3.28,3.1 -2.19,1.63 -3.57,2.46 -6.08,3.57 -7.32,3.22 -16.84,1.73 -23.22,-2.95 -3.88,-2.85 -6.63,-6.47 -8.66,-10.82 -1.41,-3.03 -2.46,-7.38 -2.46,-10.74zm-43.04 -26.53c-7.22,0 -13.14,1.53 -18.87,6.04 -5.63,4.43 -10.33,12.69 -9.55,20.01 0.23,2.18 0.2,3.23 0.77,5.47 1.96,7.83 8.26,14.22 15.66,17.16 7.08,2.81 14.56,2.88 21.64,0.05 2.21,-0.88 4.39,-2.04 6.29,-3.47 0.66,-0.49 1.33,-0.99 1.92,-1.56 1.1,-1.06 2.18,-2.04 3.09,-3.28 1.63,-2.19 2.46,-3.58 3.57,-6.08 3.23,-7.32 1.73,-16.84 -2.95,-23.22 -2.85,-3.88 -6.47,-6.63 -10.82,-8.66 -3.03,-1.41 -7.38,-2.46 -10.74,-2.46zm-39.8 60.34c3.42,2.33 7.18,4.49 11.23,6.47 -0.01,-3.76 0.01,-7.51 0.01,-11.27l0 -2.55 2.47 0.66c0.92,0.25 1.31,0.66 2.02,1.2 1.2,0.91 2.53,1.6 3.81,2.38 3.32,2.01 8.15,3.41 11.95,4.17 7.28,1.45 16.22,0.48 22.98,-2.54 6.29,-2.81 8.94,-5.05 13.76,-9.83 0.72,-0.72 1.38,-1.63 2,-2.44 1.52,-1.98 2.9,-4.36 4,-6.83 0.28,0.73 0.58,1.5 0.92,2.32 0.85,2.09 2.11,4.04 3.36,5.92 2.82,4.25 7.49,8.66 11.91,11.2 4.72,2.7 8.64,3.89 14.01,4.63 1.03,0.14 3.18,0.37 4.15,0.28 3.14,-0.37 5.19,-0.34 8.35,-1.15 4.27,-1.08 9.03,-3.33 12.52,-6.01 0.81,-0.62 1.72,-1.28 2.44,-2 4.79,-4.81 7.03,-7.47 9.84,-13.76 3.02,-6.76 3.98,-15.7 2.53,-22.98 -0.76,-3.8 -2.16,-8.63 -4.17,-11.95 -0.78,-1.28 -1.47,-2.61 -2.38,-3.81 -0.54,-0.71 -0.95,-1.1 -1.2,-2.02l-0.66 -2.46 2.55 0c3.61,0 13.25,-0.01 19.87,-0.01 -4.24,-4.11 -9.4,-7.88 -15.32,-11.22l-32.62 -0c-5.67,0 -10.82,0.68 -16.03,2.97 -2.18,0.96 -4.14,2.04 -6.11,3.38 -1.47,1 -2.56,2.1 -3.91,3.15l-2.33 2.3c-1.08,1.38 -2.2,2.5 -3.22,4 -1.31,1.93 -2.53,3.91 -3.51,6.04 -0.36,0.77 -0.69,1.57 -0.99,2.37 -0.5,-1.1 -1.07,-2.22 -1.74,-3.39 -2.53,-4.43 -6.94,-9.1 -11.2,-11.91 -1.88,-1.24 -3.83,-2.5 -5.92,-3.36 -7.08,-2.9 -10.44,-3.52 -18.13,-3.52 -3.96,0 -8.26,0.92 -11.99,2.22 -1.14,0.4 -2.29,0.84 -3.38,1.35 -2.12,0.99 -4.1,2.2 -6.04,3.52 -1.5,1.02 -2.62,2.13 -4,3.21l-2.3 2.33c-1.05,1.35 -2.15,2.44 -3.15,3.91 -1.34,1.97 -2.42,3.93 -3.38,6.11 -2.29,5.21 -2.97,10.36 -2.97,16.03l0 32.88z"/>
   </g>
   <g>
    <path class="fil2" d="M259.46 42.84c4.14,-1.42 9.22,-2.13 14.19,-2.13 7.81,0 15.61,3.55 16.8,10.43 0.59,3.31 0.95,7.21 0.95,11.12 0,3.92 -0.36,7.83 -0.95,11.14 -1.18,6.88 -8.99,10.43 -16.8,10.43l-4.02 0 17.74 26.91 15.85 0 -15.61 -23.46c15.97,-3.92 17.62,-12.32 17.62,-25.02 0,-4.85 -0.59,-9.58 -1.66,-13.74 -2.13,-8.4 -16.09,-12.77 -30.04,-12.77 -11.59,0 -23.06,2.96 -27.91,9.11l0 65.88 13.84 0 0 -67.89zm69.55 66.12l0 -23.66 0 -17.86c4.61,-2.48 11.12,-3.78 17.74,-3.78 7.81,0 15.61,3.67 16.8,10.53 0.59,3.19 0.83,7.1 0.83,11l0 25.55 13.84 0 0 -25.55c0,-4.73 -0.47,-9.58 -1.54,-13.6 -2.13,-8.52 -16.09,-12.89 -29.92,-12.89 -6.27,0 -12.54,0.83 -17.74,2.6l0 -22.47 -13.84 -1.77 0 48.14 0 25.55 13.84 0 0 -1.77zm122.18 -37.37c-4.38,-17.62 -55.71,-17.62 -60.08,-0.24 -2.01,8.16 -2.01,19.28 0,27.32 4.38,17.03 55.71,17.62 60.08,-0.47 2.01,-8.04 1.89,-18.69 0,-26.61zm-13.25 2.48c1.18,6.51 1.18,15.14 0.12,21.64 -2.48,14.67 -31.34,14.19 -33.83,0.47 -1.06,-6.62 -1.06,-15.61 0,-22.24 2.48,-14.07 31.22,-14.19 33.71,0.12zm63.52 34.18c5.91,-3.55 7.81,-12.06 4.14,-17.98 -5.2,-8.52 -21.17,-8.75 -26.61,-13.48 -2.96,-2.48 -2.01,-6.51 0.35,-9.11 4.02,-4.49 12.66,-4.02 18.69,-2.01 0.95,0.35 2.48,0.83 3.19,1.18l4.14 -3.55c-8.52,-4.61 -23.06,-5.32 -32.17,-1.66 -8.63,3.43 -12.18,13.36 -6.15,20.7 6.39,7.81 21.88,8.16 26.26,13.01 2.01,2.37 0.83,5.91 -0.83,8.04 -4.61,6.03 -16.44,4.14 -22.35,1.18 -0.35,-0.24 -1.3,-0.59 -1.54,-0.71l-4.61 3.07c8.99,6.51 28.15,7.1 37.49,1.3zm30.87 2.48l0 -49.08 -13.84 -1.89 0 50.98 13.84 0zm1.06 -69.07c-1.18,-4.73 -14.79,-4.73 -15.97,-0.12 -0.47,2.25 -0.47,5.2 0,7.33 1.18,4.5 14.9,4.61 15.97,-0.24 0.59,-2.01 0.59,-4.85 0,-6.98zm73.21 67.3l0 -1.54 0 -22.59c0,-4.61 -0.47,-9.34 -1.42,-13.25 -2.25,-8.87 -16.2,-13.25 -30.16,-13.25 -13.96,0 -27.79,4.38 -29.92,13.01 -1.06,4.14 -1.54,8.99 -1.54,13.72 0,4.85 0.47,9.58 1.54,13.6 2.25,8.52 16.09,12.89 30.04,12.89 6.15,0 12.42,-0.83 17.62,-2.6 0,3.43 -0.35,6.74 -0.83,9.58 -1.18,7.1 -9.11,10.64 -16.91,10.64l0 4.97c13.96,0 27.91,-4.38 30.04,-13.01 0.95,-3.67 1.42,-7.92 1.54,-12.18zm-13.84 -24.01l0 17.86c-4.61,2.6 -11.12,3.78 -17.62,3.78 -7.81,0 -15.73,-3.55 -16.91,-10.41 -0.59,-3.31 -0.83,-7.21 -0.83,-11.12 0,-3.9 0.24,-7.81 0.83,-11.12 1.18,-6.98 9.11,-10.53 16.8,-10.53 7.81,0 15.61,3.55 16.91,10.65 0.59,3.31 0.83,7.1 0.83,10.88zm39.03 5.56l0 -24.01c4.61,-2.25 11.12,-2.96 16.2,-2.96l0 0.12c6.39,0 12.65,3.07 13.72,9.22 0.36,2.37 0.59,5.21 0.71,8.16l0 29.69 13.72 0 0 -44.24c5.32,-1.77 10.65,-2.96 16.32,-2.96l0 0.12c6.27,0 12.65,3.07 13.6,9.22 0.47,2.84 0.71,6.15 0.71,9.58l0 28.27 13.84 0 0 -28.27c0,-4.26 -0.47,-8.52 -1.42,-12.18 -2.01,-7.69 -14.31,-11.59 -26.73,-11.59 -8.52,0 -17.03,1.89 -22.24,5.56 -5.09,-3.67 -13.72,-5.56 -22.24,-5.56 -6.74,0 -13.37,1.18 -18.45,3.43l-11.59 -1.54 0 50.15 13.84 0 0 -20.22zm163.22 -6.51c0,-4.38 -0.47,-8.75 -1.42,-12.42 -2.25,-8.87 -16.2,-13.25 -30.16,-13.25 -13.96,0 -27.8,4.38 -29.92,13.01 -1.07,4.14 -1.54,8.99 -1.54,13.72 0,4.85 0.47,9.58 1.54,13.6 2.25,8.52 16.09,12.89 30.04,12.89 6.27,0 12.54,-0.83 17.62,-2.6l13.84 1.77 0 -26.73zm-13.84 18.81c-4.61,2.6 -11.12,3.78 -17.62,3.78 -7.81,0 -15.73,-3.55 -16.91,-10.41 -0.59,-3.31 -0.83,-7.21 -0.83,-11.12 0,-3.9 0.24,-7.81 0.83,-11.12 1.18,-6.98 9.11,-10.53 16.8,-10.53 7.92,0 15.61,3.55 16.91,10.65 0.59,3.19 0.83,6.98 0.83,10.76l0 17.98z"/>
    <path class="fil3" d="M263.38 166l0 2.58 -15.08 0 0 -20.77 14.66 0 0 2.58 -11.69 0 0 6.38 10.42 0 0 2.52 -10.42 0 0 6.71 12.11 0zm12.79 -13.3c2,0 3.59,0.58 4.76,1.74 1.18,1.16 1.77,2.85 1.77,5.09l0 9.05 -2.85 0 0 -8.73c0,-1.52 -0.37,-2.67 -1.1,-3.44 -0.73,-0.77 -1.78,-1.16 -3.15,-1.16 -1.54,0 -2.76,0.45 -3.65,1.35 -0.89,0.9 -1.34,2.19 -1.34,3.87l0 8.1 -2.85 0 0 -15.73 2.73 0 0 2.37c0.57,-0.81 1.35,-1.43 2.33,-1.87 0.98,-0.44 2.09,-0.65 3.34,-0.65zm26.95 0.15l0 13.59c0,2.75 -0.68,4.78 -2.05,6.1 -1.36,1.32 -3.4,1.97 -6.11,1.97 -1.48,0 -2.9,-0.2 -4.24,-0.61 -1.34,-0.41 -2.43,-0.98 -3.26,-1.74l1.36 -2.2c0.73,0.63 1.64,1.13 2.72,1.5 1.08,0.37 2.19,0.55 3.34,0.55 1.84,0 3.2,-0.44 4.08,-1.31 0.88,-0.87 1.32,-2.2 1.32,-3.98l0 -1.25c-0.67,0.81 -1.5,1.42 -2.48,1.83 -0.98,0.4 -2.04,0.61 -3.19,0.61 -1.5,0 -2.86,-0.32 -4.08,-0.96 -1.22,-0.64 -2.17,-1.54 -2.86,-2.7 -0.69,-1.16 -1.04,-2.48 -1.04,-3.96 0,-1.48 0.35,-2.8 1.04,-3.96 0.69,-1.16 1.65,-2.05 2.86,-2.69 1.22,-0.63 2.58,-0.95 4.08,-0.95 1.19,0 2.29,0.22 3.31,0.65 1.02,0.44 1.86,1.08 2.51,1.93l0 -2.43 2.7 0zm-8.19 12.58c1.03,0 1.95,-0.22 2.78,-0.65 0.82,-0.44 1.46,-1.04 1.93,-1.83 0.46,-0.78 0.7,-1.67 0.7,-2.66 0,-1.52 -0.5,-2.76 -1.51,-3.7 -1.01,-0.94 -2.31,-1.41 -3.89,-1.41 -1.6,0 -2.91,0.47 -3.92,1.41 -1.01,0.94 -1.51,2.17 -1.51,3.7 0,0.99 0.23,1.87 0.7,2.66 0.46,0.78 1.11,1.39 1.93,1.83 0.82,0.44 1.76,0.65 2.8,0.65zm13.62 -12.58l2.85 0 0 15.73 -2.85 0 0 -15.73zm1.42 -3.03c-0.55,0 -1.01,-0.18 -1.38,-0.53 -0.37,-0.36 -0.55,-0.79 -0.55,-1.31 0,-0.51 0.18,-0.95 0.55,-1.32 0.37,-0.37 0.83,-0.55 1.38,-0.55 0.55,0 1.01,0.17 1.38,0.52 0.37,0.35 0.55,0.78 0.55,1.29 0,0.53 -0.18,0.99 -0.55,1.35 -0.37,0.37 -0.83,0.55 -1.38,0.55zm15.25 2.88c2,0 3.59,0.58 4.76,1.74 1.18,1.16 1.77,2.85 1.77,5.09l0 9.05 -2.85 0 0 -8.73c0,-1.52 -0.37,-2.67 -1.1,-3.44 -0.73,-0.77 -1.78,-1.16 -3.15,-1.16 -1.54,0 -2.76,0.45 -3.65,1.35 -0.89,0.9 -1.34,2.19 -1.34,3.87l0 8.1 -2.85 0 0 -15.73 2.73 0 0 2.37c0.57,-0.81 1.35,-1.43 2.33,-1.87 0.98,-0.44 2.09,-0.65 3.34,-0.65zm26.12 8.1c0,0.22 -0.02,0.5 -0.06,0.86l-12.76 0c0.18,1.38 0.79,2.5 1.82,3.34 1.04,0.84 2.33,1.26 3.87,1.26 1.88,0 3.39,-0.63 4.54,-1.9l1.57 1.84c-0.71,0.83 -1.6,1.46 -2.66,1.9 -1.06,0.44 -2.24,0.65 -3.55,0.65 -1.66,0 -3.14,-0.34 -4.42,-1.02 -1.29,-0.68 -2.28,-1.64 -2.98,-2.86 -0.7,-1.23 -1.05,-2.61 -1.05,-4.15 0,-1.52 0.34,-2.9 1.02,-4.13 0.68,-1.23 1.62,-2.18 2.82,-2.86 1.2,-0.68 2.55,-1.02 4.05,-1.02 1.5,0 2.84,0.34 4.02,1.02 1.18,0.68 2.1,1.64 2.76,2.86 0.66,1.23 0.99,2.63 0.99,4.21zm-7.78 -5.7c-1.36,0 -2.51,0.42 -3.43,1.25 -0.92,0.83 -1.46,1.92 -1.62,3.26l10.09 0c-0.16,-1.33 -0.7,-2.41 -1.62,-3.25 -0.92,-0.84 -2.06,-1.26 -3.43,-1.26zm25.94 5.7c0,0.22 -0.02,0.5 -0.06,0.86l-12.76 0c0.18,1.38 0.79,2.5 1.82,3.34 1.04,0.84 2.33,1.26 3.87,1.26 1.88,0 3.39,-0.63 4.54,-1.9l1.57 1.84c-0.71,0.83 -1.6,1.46 -2.66,1.9 -1.06,0.44 -2.24,0.65 -3.55,0.65 -1.66,0 -3.14,-0.34 -4.42,-1.02 -1.29,-0.68 -2.28,-1.64 -2.98,-2.86 -0.7,-1.23 -1.05,-2.61 -1.05,-4.15 0,-1.52 0.34,-2.9 1.02,-4.13 0.68,-1.23 1.62,-2.18 2.82,-2.86 1.2,-0.68 2.55,-1.02 4.05,-1.02 1.5,0 2.84,0.34 4.02,1.02 1.18,0.68 2.1,1.64 2.76,2.86 0.66,1.23 0.99,2.63 0.99,4.21zm-7.78 -5.7c-1.36,0 -2.51,0.42 -3.43,1.25 -0.92,0.83 -1.46,1.92 -1.62,3.26l10.09 0c-0.16,-1.33 -0.7,-2.41 -1.62,-3.25 -0.92,-0.84 -2.06,-1.26 -3.43,-1.26zm14.45 0.39c0.49,-0.91 1.23,-1.6 2.2,-2.08 0.97,-0.48 2.15,-0.71 3.53,-0.71l0 2.76c-0.16,-0.02 -0.38,-0.03 -0.65,-0.03 -1.54,0 -2.76,0.46 -3.64,1.38 -0.88,0.92 -1.32,2.23 -1.32,3.93l0 7.84 -2.85 0 0 -15.73 2.73 0 0 2.64zm9.23 -2.64l2.85 0 0 15.73 -2.85 0 0 -15.73zm1.42 -3.03c-0.55,0 -1.01,-0.18 -1.38,-0.53 -0.37,-0.36 -0.55,-0.79 -0.55,-1.31 0,-0.51 0.18,-0.95 0.55,-1.32 0.37,-0.37 0.83,-0.55 1.38,-0.55 0.55,0 1.01,0.17 1.38,0.52 0.37,0.35 0.55,0.78 0.55,1.29 0,0.53 -0.18,0.99 -0.55,1.35 -0.37,0.37 -0.83,0.55 -1.38,0.55zm15.25 2.88c2,0 3.59,0.58 4.76,1.74 1.18,1.16 1.77,2.85 1.77,5.09l0 9.05 -2.85 0 0 -8.73c0,-1.52 -0.37,-2.67 -1.1,-3.44 -0.73,-0.77 -1.78,-1.16 -3.15,-1.16 -1.54,0 -2.76,0.45 -3.65,1.35 -0.89,0.9 -1.34,2.19 -1.34,3.87l0 8.1 -2.85 0 0 -15.73 2.73 0 0 2.37c0.57,-0.81 1.35,-1.43 2.33,-1.87 0.98,-0.44 2.09,-0.65 3.34,-0.65zm26.95 0.15l0 13.59c0,2.75 -0.68,4.78 -2.05,6.1 -1.36,1.32 -3.4,1.97 -6.11,1.97 -1.48,0 -2.9,-0.2 -4.24,-0.61 -1.34,-0.41 -2.43,-0.98 -3.26,-1.74l1.36 -2.2c0.73,0.63 1.64,1.13 2.72,1.5 1.08,0.37 2.19,0.55 3.34,0.55 1.84,0 3.2,-0.44 4.08,-1.31 0.88,-0.87 1.32,-2.2 1.32,-3.98l0 -1.25c-0.67,0.81 -1.5,1.42 -2.48,1.83 -0.98,0.4 -2.04,0.61 -3.19,0.61 -1.5,0 -2.86,-0.32 -4.08,-0.96 -1.22,-0.64 -2.17,-1.54 -2.86,-2.7 -0.69,-1.16 -1.04,-2.48 -1.04,-3.96 0,-1.48 0.35,-2.8 1.04,-3.96 0.69,-1.16 1.65,-2.05 2.86,-2.69 1.22,-0.63 2.58,-0.95 4.08,-0.95 1.19,0 2.29,0.22 3.31,0.65 1.02,0.44 1.86,1.08 2.51,1.93l0 -2.43 2.7 0zm-8.19 12.58c1.03,0 1.95,-0.22 2.78,-0.65 0.82,-0.44 1.46,-1.04 1.93,-1.83 0.46,-0.78 0.7,-1.67 0.7,-2.66 0,-1.52 -0.5,-2.76 -1.51,-3.7 -1.01,-0.94 -2.31,-1.41 -3.89,-1.41 -1.6,0 -2.91,0.47 -3.92,1.41 -1.01,0.94 -1.51,2.17 -1.51,3.7 0,0.99 0.23,1.87 0.7,2.66 0.46,0.78 1.11,1.39 1.93,1.83 0.82,0.44 1.76,0.65 2.8,0.65zm37.22 3.47l-2.76 -2.76c-1.84,1.78 -4.15,2.67 -6.94,2.67 -1.38,0 -2.63,-0.23 -3.74,-0.68 -1.11,-0.46 -1.97,-1.09 -2.6,-1.91 -0.62,-0.82 -0.93,-1.76 -0.93,-2.8 0,-1.27 0.39,-2.39 1.17,-3.37 0.78,-0.98 2.07,-1.98 3.87,-3.01 -0.91,-0.91 -1.55,-1.73 -1.93,-2.46 -0.38,-0.73 -0.56,-1.49 -0.56,-2.29 0,-1.4 0.51,-2.53 1.53,-3.38 1.02,-0.85 2.38,-1.28 4.08,-1.28 1.58,0 2.84,0.39 3.77,1.16 0.93,0.77 1.4,1.83 1.4,3.18 0,1.05 -0.34,1.99 -1.02,2.82 -0.68,0.83 -1.82,1.7 -3.4,2.61l5.13 5.1c0.59,-1.13 1.02,-2.38 1.28,-3.77l2.29 0.74c-0.36,1.82 -0.96,3.4 -1.81,4.75l2.79 2.79 -1.6 1.9zm-8.81 -19.2c-0.93,0 -1.66,0.23 -2.18,0.7 -0.52,0.46 -0.79,1.07 -0.79,1.83 0,0.53 0.14,1.05 0.43,1.54 0.29,0.5 0.85,1.17 1.68,2.02 1.36,-0.77 2.31,-1.43 2.83,-1.99 0.52,-0.55 0.79,-1.16 0.79,-1.81 0,-0.69 -0.24,-1.25 -0.73,-1.66 -0.48,-0.42 -1.16,-0.62 -2.03,-0.62zm-0.71 16.74c2.06,0 3.75,-0.65 5.07,-1.96l-5.91 -5.88c-1.42,0.79 -2.42,1.53 -2.98,2.21 -0.56,0.68 -0.85,1.45 -0.85,2.3 0,0.99 0.43,1.79 1.29,2.4 0.86,0.61 1.98,0.92 3.37,0.92zm35.91 -3.06l-11.04 0 -2.29 5.19 -3.06 0 9.41 -20.77 2.94 0 9.44 20.77 -3.12 0 -2.29 -5.19zm-1.04 -2.37l-4.48 -10.18 -4.48 10.18 8.96 0zm23.47 -8.16l0 15.73 -2.7 0 0 -2.37c-0.57,0.81 -1.33,1.44 -2.27,1.88 -0.94,0.45 -1.96,0.67 -3.07,0.67 -2.1,0 -3.75,-0.58 -4.96,-1.74 -1.21,-1.16 -1.81,-2.86 -1.81,-5.12l0 -9.05 2.85 0 0 8.73c0,1.52 0.37,2.68 1.1,3.46 0.73,0.78 1.78,1.17 3.15,1.17 1.5,0 2.69,-0.45 3.56,-1.36 0.87,-0.91 1.31,-2.2 1.31,-3.86l0 -8.13 2.85 0zm14.27 14.81c-0.42,0.36 -0.93,0.63 -1.54,0.82 -0.61,0.19 -1.25,0.28 -1.9,0.28 -1.58,0 -2.81,-0.42 -3.68,-1.28 -0.87,-0.85 -1.31,-2.07 -1.31,-3.65l0 -8.64 -2.67 0 0 -2.35 2.67 0 0 -3.44 2.85 0 0 3.44 4.51 0 0 2.35 -4.51 0 0 8.52c0,0.85 0.21,1.5 0.64,1.96 0.43,0.46 1.03,0.68 1.83,0.68 0.87,0 1.61,-0.25 2.23,-0.74l0.89 2.05zm9.65 1.1c-1.56,0 -2.97,-0.35 -4.21,-1.04 -1.25,-0.69 -2.22,-1.65 -2.92,-2.86 -0.7,-1.22 -1.05,-2.6 -1.05,-4.14 0,-1.54 0.35,-2.92 1.05,-4.14 0.7,-1.22 1.68,-2.17 2.92,-2.85 1.25,-0.68 2.65,-1.02 4.21,-1.02 1.56,0 2.96,0.34 4.2,1.02 1.24,0.68 2.21,1.63 2.91,2.85 0.7,1.22 1.05,2.6 1.05,4.14 0,1.54 -0.35,2.92 -1.05,4.14 -0.7,1.22 -1.67,2.17 -2.91,2.86 -1.24,0.69 -2.64,1.04 -4.2,1.04zm0 -2.49c1.01,0 1.91,-0.23 2.72,-0.7 0.8,-0.46 1.43,-1.12 1.88,-1.96 0.46,-0.84 0.68,-1.81 0.68,-2.89 0,-1.09 -0.23,-2.05 -0.68,-2.89 -0.46,-0.84 -1.08,-1.49 -1.88,-1.94 -0.8,-0.46 -1.71,-0.68 -2.72,-0.68 -1.01,0 -1.91,0.23 -2.72,0.68 -0.8,0.46 -1.43,1.1 -1.9,1.94 -0.46,0.84 -0.7,1.8 -0.7,2.89 0,1.09 0.23,2.05 0.7,2.89 0.46,0.84 1.1,1.49 1.9,1.96 0.8,0.47 1.71,0.7 2.72,0.7zm31.78 -13.56c1.98,0 3.55,0.57 4.7,1.72 1.16,1.15 1.74,2.85 1.74,5.1l0 9.05 -2.85 0 0 -8.73c0,-1.52 -0.35,-2.67 -1.05,-3.44 -0.7,-0.77 -1.71,-1.16 -3.01,-1.16 -1.44,0 -2.59,0.45 -3.44,1.35 -0.85,0.9 -1.28,2.19 -1.28,3.87l0 8.1 -2.85 0 0 -8.73c0,-1.52 -0.35,-2.67 -1.05,-3.44 -0.7,-0.77 -1.71,-1.16 -3.01,-1.16 -1.44,0 -2.59,0.45 -3.44,1.35 -0.85,0.9 -1.28,2.19 -1.28,3.87l0 8.1 -2.85 0 0 -15.73 2.73 0 0 2.35c0.57,-0.81 1.33,-1.43 2.25,-1.86 0.93,-0.43 1.99,-0.64 3.18,-0.64 1.23,0 2.32,0.25 3.27,0.74 0.95,0.49 1.68,1.22 2.2,2.17 0.59,-0.91 1.42,-1.62 2.48,-2.14 1.06,-0.51 2.25,-0.77 3.58,-0.77zm17.42 0c2.18,0 3.84,0.53 5,1.6 1.16,1.07 1.74,2.66 1.74,4.78l0 9.5 -2.7 0 0 -2.08c-0.47,0.73 -1.15,1.29 -2.03,1.68 -0.88,0.39 -1.92,0.58 -3.13,0.58 -1.76,0 -3.17,-0.42 -4.23,-1.28 -1.06,-0.85 -1.59,-1.97 -1.59,-3.35 0,-1.38 0.5,-2.5 1.51,-3.34 1.01,-0.84 2.61,-1.26 4.81,-1.26l4.51 0 0 -0.56c0,-1.23 -0.36,-2.17 -1.07,-2.82 -0.71,-0.65 -1.76,-0.98 -3.15,-0.98 -0.93,0 -1.84,0.15 -2.73,0.46 -0.89,0.31 -1.64,0.72 -2.26,1.23l-1.19 -2.14c0.81,-0.65 1.78,-1.15 2.91,-1.5 1.13,-0.35 2.33,-0.52 3.59,-0.52zm-0.65 13.86c1.09,0 2.03,-0.24 2.82,-0.73 0.79,-0.48 1.36,-1.17 1.72,-2.06l0 -2.2 -4.39 0c-2.41,0 -3.62,0.81 -3.62,2.43 0,0.79 0.31,1.41 0.92,1.87 0.61,0.46 1.46,0.68 2.55,0.68zm21.52 1.1c-0.42,0.36 -0.93,0.63 -1.54,0.82 -0.61,0.19 -1.25,0.28 -1.9,0.28 -1.58,0 -2.81,-0.42 -3.68,-1.28 -0.87,-0.85 -1.31,-2.07 -1.31,-3.65l0 -8.64 -2.67 0 0 -2.35 2.67 0 0 -3.44 2.85 0 0 3.44 4.51 0 0 2.35 -4.51 0 0 8.52c0,0.85 0.21,1.5 0.64,1.96 0.43,0.46 1.03,0.68 1.83,0.68 0.87,0 1.61,-0.25 2.23,-0.74l0.89 2.05zm3.44 -14.81l2.85 0 0 15.73 -2.85 0 0 -15.73zm1.42 -3.03c-0.55,0 -1.01,-0.18 -1.38,-0.53 -0.37,-0.36 -0.55,-0.79 -0.55,-1.31 0,-0.51 0.18,-0.95 0.55,-1.32 0.37,-0.37 0.83,-0.55 1.38,-0.55 0.55,0 1.01,0.17 1.38,0.52 0.37,0.35 0.55,0.78 0.55,1.29 0,0.53 -0.18,0.99 -0.55,1.35 -0.37,0.37 -0.83,0.55 -1.38,0.55zm13.59 18.93c-1.56,0 -2.97,-0.35 -4.21,-1.04 -1.25,-0.69 -2.22,-1.65 -2.92,-2.86 -0.7,-1.22 -1.05,-2.6 -1.05,-4.14 0,-1.54 0.35,-2.92 1.05,-4.14 0.7,-1.22 1.68,-2.17 2.92,-2.85 1.25,-0.68 2.65,-1.02 4.21,-1.02 1.56,0 2.96,0.34 4.2,1.02 1.24,0.68 2.21,1.63 2.91,2.85 0.7,1.22 1.05,2.6 1.05,4.14 0,1.54 -0.35,2.92 -1.05,4.14 -0.7,1.22 -1.67,2.17 -2.91,2.86 -1.24,0.69 -2.64,1.04 -4.2,1.04zm0 -2.49c1.01,0 1.91,-0.23 2.72,-0.7 0.8,-0.46 1.43,-1.12 1.88,-1.96 0.46,-0.84 0.68,-1.81 0.68,-2.89 0,-1.09 -0.23,-2.05 -0.68,-2.89 -0.46,-0.84 -1.08,-1.49 -1.88,-1.94 -0.8,-0.46 -1.71,-0.68 -2.72,-0.68 -1.01,0 -1.91,0.23 -2.72,0.68 -0.8,0.46 -1.43,1.1 -1.9,1.94 -0.46,0.84 -0.7,1.8 -0.7,2.89 0,1.09 0.23,2.05 0.7,2.89 0.46,0.84 1.1,1.49 1.9,1.96 0.8,0.47 1.71,0.7 2.72,0.7zm20.51 -13.56c2,0 3.59,0.58 4.76,1.74 1.18,1.16 1.77,2.85 1.77,5.09l0 9.05 -2.85 0 0 -8.73c0,-1.52 -0.37,-2.67 -1.1,-3.44 -0.73,-0.77 -1.78,-1.16 -3.15,-1.16 -1.54,0 -2.76,0.45 -3.65,1.35 -0.89,0.9 -1.34,2.19 -1.34,3.87l0 8.1 -2.85 0 0 -15.73 2.73 0 0 2.37c0.57,-0.81 1.35,-1.43 2.33,-1.87 0.98,-0.44 2.09,-0.65 3.34,-0.65zm28.31 -4.9c2.69,0 4.81,0.64 6.35,1.93 1.54,1.29 2.32,3.06 2.32,5.31 0,2.26 -0.77,4.03 -2.32,5.31 -1.54,1.29 -3.66,1.93 -6.35,1.93l-5.13 0 0 6.29 -2.97 0 0 -20.77 8.1 0zm-0.09 11.9c1.88,0 3.31,-0.4 4.3,-1.2 0.99,-0.8 1.48,-1.95 1.48,-3.46 0,-1.5 -0.5,-2.66 -1.48,-3.46 -0.99,-0.8 -2.42,-1.2 -4.3,-1.2l-5.04 0 0 9.32 5.04 0zm30.95 -11.9l-9.11 20.77 -2.94 0 -9.14 -20.77 3.21 0 7.48 17.06 7.54 -17.06 2.97 0zm6.97 2.58l-7.12 0 0 -2.58 17.18 0 0 2.58 -7.12 0 0 18.19 -2.94 0 0 -18.19zm12.61 18.37c-0.55,0 -1.03,-0.19 -1.42,-0.58 -0.4,-0.39 -0.59,-0.88 -0.59,-1.47 0,-0.57 0.2,-1.05 0.59,-1.44 0.4,-0.39 0.87,-0.58 1.42,-0.58 0.55,0 1.02,0.19 1.4,0.56 0.38,0.38 0.56,0.86 0.56,1.45 0,0.59 -0.19,1.08 -0.58,1.47 -0.39,0.39 -0.85,0.58 -1.38,0.58zm14.45 -20.95l2.97 0 0 18.19 11.25 0 0 2.58 -14.22 0 0 -20.77zm19.82 2.58l-7.12 0 0 -2.58 17.18 0 0 2.58 -7.12 0 0 18.19 -2.94 0 0 -18.19zm13.3 -2.58l8.76 0c2.2,0 4.14,0.44 5.85,1.31 1.7,0.87 3.02,2.09 3.96,3.67 0.94,1.57 1.41,3.38 1.41,5.42 0,2.04 -0.47,3.84 -1.41,5.42 -0.94,1.57 -2.26,2.79 -3.96,3.66 -1.7,0.87 -3.65,1.31 -5.85,1.31l-8.76 0 0 -20.77zm8.58 18.19c1.68,0 3.16,-0.33 4.44,-0.98 1.28,-0.65 2.26,-1.57 2.95,-2.74 0.69,-1.18 1.04,-2.54 1.04,-4.08 0,-1.54 -0.35,-2.9 -1.04,-4.08 -0.69,-1.18 -1.68,-2.09 -2.95,-2.75 -1.28,-0.65 -2.76,-0.98 -4.44,-0.98l-5.61 0 0 15.61 5.61 0zm15.61 2.76c-0.55,0 -1.03,-0.19 -1.42,-0.58 -0.4,-0.39 -0.59,-0.88 -0.59,-1.47 0,-0.57 0.2,-1.05 0.59,-1.44 0.4,-0.39 0.87,-0.58 1.42,-0.58 0.55,0 1.02,0.19 1.4,0.56 0.38,0.38 0.56,0.86 0.56,1.45 0,0.59 -0.19,1.08 -0.58,1.47 -0.39,0.39 -0.85,0.58 -1.38,0.58z"/>
   </g>
  </g>
 </g>
</svg>
